<svg xmlns="http://www.w3.org/2000/svg" viewBox="0 0 16 16" fill="none">
<path d="M6.77988 9.01996L7.13344 9.37351L7.48699 9.01996L10.2203 6.28662C10.2629 6.24407 10.3036 6.23307 10.3334 6.23307C10.3633 6.23307 10.404 6.24407 10.4465 6.28662C10.4891 6.32918 10.5001 6.36985 10.5001 6.39974C10.5001 6.42962 10.4891 6.47029 10.4465 6.51285L7.24655 9.71285C7.20399 9.75541 7.16332 9.7664 7.13344 9.7664C7.10355 9.7664 7.06288 9.75541 7.02032 9.71285L5.55366 8.24618C5.5111 8.20363 5.5001 8.16296 5.5001 8.13307C5.5001 8.10318 5.5111 8.06251 5.55366 8.01996C5.59621 7.9774 5.63688 7.9664 5.66677 7.9664C5.69665 7.9664 5.73733 7.9774 5.77988 8.01996L6.77988 9.01996ZM8.0001 0.833069C4.05729 0.833069 0.833435 4.05693 0.833435 7.99974C0.833435 11.9425 4.05729 15.1664 8.0001 15.1664C11.9429 15.1664 15.1668 11.9425 15.1668 7.99974C15.1668 4.05693 11.9429 0.833069 8.0001 0.833069Z" fill="#3AA7EA" stroke="white"/>
</svg>