<svg xmlns="http://www.w3.org/2000/svg" width="14" height="14" fill="none" viewBox="0 0 14 14">
  <path fill="#567977" d="M11.082 6.417h-3.5v-3.5c0-.154-.061-.303-.17-.412-.11-.11-.259-.171-.413-.171-.155 0-.303.061-.413.17-.11.11-.17.259-.17.413v3.5h-3.5c-.155 0-.304.062-.413.171-.11.11-.171.258-.171.413 0 .154.061.303.17.412.11.11.259.171.413.171h3.5v3.5c0 .155.062.303.171.412.11.11.258.171.413.171.154 0 .303-.061.412-.17.11-.11.171-.258.171-.413v-3.5h3.5c.155 0 .303-.061.412-.17.11-.11.171-.259.171-.413 0-.155-.061-.303-.17-.413-.11-.11-.258-.17-.413-.17z" />
</svg>
