<svg xmlns="http://www.w3.org/2000/svg" width="93" height="22" fill="none" viewBox="0 0 93 22">
    <g clip-path="url(#clip0)">
        <path fill="#1E7B85" d="M2.723 10.876c.33.398.747.716 1.218.928.472.213.986.314 1.503.298.41.02.82-.045 1.202-.193.383-.148.73-.375 1.02-.667.264-.268.473-.585.613-.935.14-.349.21-.722.205-1.099.02-.673-.227-1.327-.688-1.818-.462-.491-1.1-.78-1.773-.8-.246.007-.491.038-.732.091-.189.057-.383.095-.58.112-.432 0-.65-.26-.65-.783.013-.456.14-.9.37-1.295.228-.394.552-.725.941-.963.25-.19.513-.36.789-.508.856-.363 1.78-.538 2.71-.514 1.877-.03 3.72.5 5.293 1.526L13.01 5.934l1.622 1.062L16.788 3.9l-.702-.56C14.042 1.69 11.483.807 8.856.85c-4.236 0-7.2 2.603-7.2 6.325v.285c-.063 1.236.315 2.455 1.067 3.438v-.02zM13.676 9.905c-.41-.023-.82.042-1.203.189-.383.147-.73.374-1.02.665-.529.543-.821 1.275-.813 2.034-.015.357.048.713.185 1.044.137.33.345.626.608.868.45.438 1.046.692 1.673.712.245-.01.488-.041.727-.092.19-.06.387-.097.585-.112.432 0 .646.26.646.778 0 .185-.02.37-.061.55-.717 1.759-2.543 2.77-5.227 2.77-2.232.01-4.406-.704-6.199-2.033l1.47-1.683-1.526-1.18L.903 17.49l.666.595c2.26 2.01 5.182 3.115 8.207 3.102.34.009.68-.006 1.017-.046 1.75-.063 3.427-.715 4.76-1.85 1.267-1.143 1.9-2.723 1.9-4.74.082-1.225-.28-2.44-1.016-3.422-.328-.4-.745-.72-1.216-.933-.472-.214-.987-.315-1.505-.298l-.04.006z"/>
        <path fill="#00293F" d="M64.138 16.256h1.2V5.623h-1.2v10.633zM76.109 10.764c.504-.185.938-.524 1.24-.968.303-.444.46-.971.448-1.508 0-1.632-1.368-2.665-3.463-2.665h-4.53v10.633h4.723c2.33 0 3.86-1.078 3.86-2.914 0-1.49-1.017-2.202-2.278-2.578zm-5.126-4.068h3.26c1.525 0 2.354.682 2.354 1.744 0 1.266-1.017 1.917-2.44 1.917h-3.174V6.696zm3.56 8.477h-3.56v-3.728h3.356c1.856 0 2.827.667 2.827 1.836 0 1.17-1.017 1.902-2.603 1.902l-.02-.01zM43.107 15.335c-2.34 0-4.119-1.932-4.119-4.403 0-2.472 1.765-4.378 4.119-4.378.627.004 1.246.136 1.82.386.574.251 1.092.616 1.52 1.073l.814-.88c-.534-.56-1.18-1-1.896-1.295-.715-.294-1.485-.435-2.258-.413-.72-.003-1.433.14-2.097.42-.664.28-1.264.69-1.765 1.207-.502.517-.894 1.13-1.153 1.801-.259.672-.38 1.39-.355 2.11-.02.713.104 1.422.364 2.087.26.665.65 1.27 1.147 1.781.498.512 1.093.918 1.75 1.195.659.276 1.365.419 2.078.418.806.018 1.606-.14 2.344-.462.738-.323 1.398-.802 1.933-1.404l-.819-.778c-1.017.97-1.968 1.525-3.427 1.525v.01zM31.087 10.368c-2.345-.509-2.884-1.063-2.884-2.08 0-1.017.875-1.734 2.258-1.734 1.123.006 2.206.415 3.051 1.154l.702-.925c-1.037-.876-2.36-1.341-3.717-1.307-2.034 0-3.499 1.22-3.499 2.919 0 1.698 1.13 2.542 3.56 3.081 2.232.473 2.771 1.017 2.771 2.034 0 1.078-.946 1.82-2.375 1.82-.68.01-1.356-.118-1.986-.376-.63-.257-1.201-.64-1.68-1.124l-.727.87c1.172 1.11 2.728 1.725 4.343 1.713 2.11 0 3.63-1.184 3.63-3.025 0-1.637-1.098-2.502-3.463-3.02h.016zM59.293 8.808c0-1.917-1.526-3.178-3.844-3.178h-4.577v10.632h1.2v-4.134h3.051l3.082 4.13h1.474l-3.26-4.348c1.669-.295 2.879-1.327 2.879-3.102h-.005zm-7.216 2.212V6.733h3.285c1.714 0 2.72.794 2.72 2.11 0 1.318-1.144 2.177-2.74 2.177h-3.265zM86.78 5.623H83.09v10.633h3.691c3.341 0 5.65-2.324 5.65-5.33 0-3.004-2.299-5.303-5.65-5.303zm0 9.53h-2.486V6.731h2.496c2.685 0 4.404 1.856 4.404 4.225 0 2.37-1.719 4.195-4.404 4.195h-.01z"/>
    </g>
    <defs>
        <clipPath id="clip0">
            <path fill="#fff" d="M0 0H91.528V20.345H0z" transform="translate(0.902588 0.848389)"/>
        </clipPath>
    </defs>
</svg>
