<svg width="116" height="30" viewBox="0 0 116 30" fill="none" xmlns="http://www.w3.org/2000/svg">
<path d="M32.9199 25.524C32.9199 24.9506 33.1744 24.5134 33.6833 24.2123C34.1994 23.9041 35.0165 23.6891 36.1346 23.5672C36.1346 23.4024 36.1167 23.2411 36.0809 23.0834C36.0522 22.9257 35.9949 22.7859 35.9089 22.6641C35.83 22.5422 35.7225 22.4455 35.5863 22.3738C35.4501 22.295 35.2745 22.2555 35.0595 22.2555C34.7513 22.2555 34.4646 22.3129 34.1994 22.4276C33.9413 22.5422 33.7084 22.6713 33.5005 22.8146L33.1457 22.2018C33.3894 22.0441 33.6869 21.8936 34.0381 21.7502C34.3893 21.5997 34.7764 21.5244 35.1993 21.5244C35.8372 21.5244 36.2995 21.7215 36.5862 22.1158C36.8729 22.5028 37.0163 23.0225 37.0163 23.6747V26.8787H36.2852L36.2099 26.2551H36.1884C35.9375 26.463 35.6652 26.6422 35.3713 26.7927C35.0846 26.9361 34.7799 27.0077 34.4574 27.0077C34.013 27.0077 33.6439 26.8787 33.35 26.6207C33.0633 26.3626 32.9199 25.9971 32.9199 25.524ZM33.7908 25.4595C33.7908 25.7606 33.8768 25.9756 34.0488 26.1046C34.228 26.2336 34.4466 26.2981 34.7047 26.2981C34.9556 26.2981 35.1921 26.2408 35.4143 26.1261C35.6437 26.0043 35.8838 25.8286 36.1346 25.5993V24.1478C35.6974 24.2052 35.3283 24.2732 35.0272 24.3521C34.7262 24.4309 34.4825 24.5241 34.2961 24.6316C34.1169 24.7392 33.9879 24.8646 33.9091 25.0079C33.8302 25.1441 33.7908 25.2946 33.7908 25.4595Z" fill="#636C8B"/>
<path d="M43.1325 27.0077C42.6594 27.0077 42.2007 26.9181 41.7563 26.7389C41.3191 26.5598 40.932 26.3053 40.5951 25.9756L41.3262 25.1262C41.5771 25.3627 41.8638 25.5563 42.1863 25.7068C42.5089 25.8501 42.8314 25.9218 43.154 25.9218C43.5554 25.9218 43.86 25.8394 44.0679 25.6745C44.2757 25.5097 44.3797 25.2911 44.3797 25.0187C44.3797 24.7248 44.2757 24.5134 44.0679 24.3843C43.8672 24.2553 43.6091 24.1227 43.2938 23.9865L42.3261 23.5672C42.0968 23.4669 41.871 23.3379 41.6488 23.1802C41.4337 23.0225 41.2545 22.8218 41.1112 22.5781C40.975 22.3344 40.9069 22.0405 40.9069 21.6965C40.9069 21.3237 41.0073 20.9904 41.208 20.6966C41.4158 20.3955 41.6954 20.159 42.0466 19.987C42.405 19.8078 42.8135 19.7182 43.2723 19.7182C43.6808 19.7182 44.075 19.8006 44.4549 19.9655C44.8348 20.1231 45.1609 20.3382 45.4333 20.6105L44.799 21.4062C44.5768 21.2198 44.3402 21.0729 44.0894 20.9653C43.8457 20.8578 43.5733 20.8041 43.2723 20.8041C42.9425 20.8041 42.6738 20.8793 42.4659 21.0299C42.2652 21.1732 42.1648 21.3739 42.1648 21.6319C42.1648 21.8111 42.215 21.9617 42.3154 22.0835C42.4229 22.1982 42.5627 22.2985 42.7347 22.3846C42.9067 22.4634 43.0895 22.5422 43.283 22.6211L44.2399 23.0189C44.6556 23.1981 44.9961 23.4346 45.2613 23.7285C45.5265 24.0152 45.6591 24.413 45.6591 24.9219C45.6591 25.3018 45.5588 25.6494 45.3581 25.9648C45.1574 26.2802 44.8671 26.5347 44.4872 26.7282C44.1145 26.9146 43.6629 27.0077 43.1325 27.0077Z" fill="#636C8B"/>
<path d="M49.1418 27.0077C48.6615 27.0077 48.2279 26.9002 47.8408 26.6852C47.4609 26.463 47.1563 26.1476 46.927 25.739C46.7048 25.3233 46.5937 24.8252 46.5937 24.2446C46.5937 23.6568 46.7155 23.1587 46.9592 22.7501C47.2029 22.3344 47.5255 22.019 47.9268 21.804C48.3354 21.5818 48.7726 21.4707 49.2385 21.4707C49.5754 21.4707 49.8693 21.528 50.1202 21.6427C50.371 21.7574 50.5932 21.8972 50.7868 22.062L50.1847 22.8684C50.0485 22.7465 49.9087 22.6533 49.7654 22.5888C49.622 22.5172 49.4679 22.4813 49.303 22.4813C48.8802 22.4813 48.5325 22.6426 48.2601 22.9651C47.9949 23.2877 47.8623 23.7142 47.8623 24.2446C47.8623 24.7678 47.9914 25.1907 48.2494 25.5133C48.5146 25.8358 48.8551 25.9971 49.2708 25.9971C49.4787 25.9971 49.6722 25.9541 49.8514 25.8681C50.0377 25.7749 50.2062 25.6674 50.3567 25.5455L50.862 26.3626C50.6183 26.5777 50.3459 26.7389 50.0449 26.8465C49.7439 26.954 49.4428 27.0077 49.1418 27.0077Z" fill="#636C8B"/>
<path d="M52.0115 26.8787V21.5997H53.0329L53.1189 22.5351H53.1619C53.3483 22.191 53.5741 21.9294 53.8393 21.7502C54.1045 21.5639 54.3769 21.4707 54.6564 21.4707C54.9073 21.4707 55.108 21.5065 55.2585 21.5782L55.0435 22.6533C54.9503 22.6247 54.8643 22.6032 54.7854 22.5888C54.7066 22.5745 54.6098 22.5673 54.4951 22.5673C54.2873 22.5673 54.0687 22.6498 53.8393 22.8146C53.6099 22.9723 53.4128 23.2519 53.2479 23.6532V26.8787H52.0115Z" fill="#636C8B"/>
<path d="M56.1299 26.8787V21.5997H57.3663V26.8787H56.1299ZM56.7535 20.6751C56.5313 20.6751 56.3521 20.6105 56.2159 20.4815C56.0797 20.3525 56.0116 20.1805 56.0116 19.9655C56.0116 19.7576 56.0797 19.5891 56.2159 19.4601C56.3521 19.3311 56.5313 19.2666 56.7535 19.2666C56.9757 19.2666 57.1549 19.3311 57.291 19.4601C57.4272 19.5891 57.4953 19.7576 57.4953 19.9655C57.4953 20.1805 57.4272 20.3525 57.291 20.4815C57.1549 20.6105 56.9757 20.6751 56.7535 20.6751Z" fill="#636C8B"/>
<path d="M61.6102 27.0077C61.1084 27.0077 60.6282 26.7784 60.1694 26.3196H60.1372L60.0297 26.8787H59.0513V19.2881H60.2877V21.2449L60.2555 22.1265C60.4777 21.933 60.7214 21.7753 60.9866 21.6535C61.2518 21.5316 61.517 21.4707 61.7822 21.4707C62.4416 21.4707 62.9541 21.7144 63.3197 22.2018C63.6852 22.6892 63.868 23.3379 63.868 24.1478C63.868 24.7499 63.7605 25.266 63.5454 25.696C63.3304 26.1189 63.0509 26.4451 62.7068 26.6744C62.3699 26.8966 62.0044 27.0077 61.6102 27.0077ZM61.3521 25.9863C61.7033 25.9863 61.9972 25.8322 62.2337 25.524C62.4703 25.2158 62.5885 24.7642 62.5885 24.1693C62.5885 23.6389 62.4989 23.2268 62.3198 22.9329C62.1406 22.639 61.8503 22.4921 61.4489 22.4921C61.0762 22.4921 60.6891 22.6892 60.2877 23.0834V25.5455C60.4741 25.7032 60.6568 25.8179 60.836 25.8896C61.0224 25.9541 61.1944 25.9863 61.3521 25.9863Z" fill="#636C8B"/>
<path d="M67.0663 27.0077C66.4069 27.0077 65.8801 26.764 65.4858 26.2766C65.0916 25.7892 64.8945 25.1119 64.8945 24.2446C64.8945 23.6712 64.9984 23.1766 65.2063 22.7609C65.4213 22.3451 65.7009 22.0262 66.0449 21.804C66.389 21.5818 66.7509 21.4707 67.1308 21.4707C67.4319 21.4707 67.6863 21.5244 67.8942 21.6319C68.1092 21.7323 68.3171 21.8721 68.5178 22.0513L68.4748 21.2019V19.2881H69.7112V26.8787H68.6898L68.6038 26.3089H68.5608C68.3673 26.5024 68.1415 26.6673 67.8834 26.8035C67.6254 26.9396 67.353 27.0077 67.0663 27.0077ZM67.3674 25.9863C67.7616 25.9863 68.1307 25.7892 68.4748 25.395V22.9329C68.2956 22.768 68.1164 22.6533 67.9372 22.5888C67.758 22.5243 67.5788 22.4921 67.3996 22.4921C67.0627 22.4921 66.7724 22.6462 66.5287 22.9544C66.2922 23.2554 66.1739 23.6819 66.1739 24.2338C66.1739 24.8001 66.2779 25.2337 66.4857 25.5348C66.6936 25.8358 66.9875 25.9863 67.3674 25.9863Z" fill="#636C8B"/>
<path d="M73.384 24.2768C73.384 23.8396 73.4521 23.4525 73.5882 23.1157C73.7244 22.7716 73.9072 22.4813 74.1366 22.2448C74.3659 22.0083 74.6311 21.8291 74.9322 21.7072C75.2404 21.5854 75.5629 21.5244 75.8998 21.5244C76.2439 21.5244 76.5378 21.5889 76.7815 21.718C77.0323 21.8398 77.2474 21.9832 77.4266 22.148L76.9857 22.7179C76.828 22.5817 76.6632 22.4706 76.4912 22.3846C76.3263 22.2985 76.1399 22.2555 75.9321 22.2555C75.6955 22.2555 75.4769 22.3057 75.2762 22.4061C75.0755 22.4992 74.9035 22.6354 74.7602 22.8146C74.6168 22.9938 74.5021 23.2088 74.4161 23.4597C74.3373 23.7034 74.2978 23.9758 74.2978 24.2768C74.2978 24.5779 74.3373 24.8503 74.4161 25.094C74.495 25.3377 74.6025 25.5491 74.7387 25.7283C74.882 25.9003 75.054 26.0365 75.2547 26.1369C75.4554 26.23 75.674 26.2766 75.9106 26.2766C76.1615 26.2766 76.3872 26.2265 76.5879 26.1261C76.7958 26.0186 76.9786 25.8932 77.1363 25.7498L77.5341 26.3304C77.2975 26.5382 77.0323 26.7031 76.7385 26.825C76.4517 26.9468 76.1507 27.0077 75.8353 27.0077C75.4913 27.0077 75.1687 26.9468 74.8677 26.825C74.5666 26.7031 74.305 26.5275 74.0828 26.2981C73.8678 26.0616 73.6958 25.7749 73.5667 25.438C73.4449 25.094 73.384 24.7069 73.384 24.2768Z" fill="#636C8B"/>
<path d="M78.1638 24.2768C78.1638 23.8396 78.2283 23.4525 78.3573 23.1157C78.4935 22.7716 78.6727 22.4813 78.8949 22.2448C79.1171 22.0083 79.3715 21.8291 79.6583 21.7072C79.9521 21.5854 80.2603 21.5244 80.5829 21.5244C80.9054 21.5244 81.2101 21.5854 81.4968 21.7072C81.7907 21.8291 82.0487 22.0083 82.2709 22.2448C82.4931 22.4813 82.6687 22.7716 82.7977 23.1157C82.9339 23.4525 83.002 23.8396 83.002 24.2768C83.002 24.7069 82.9339 25.094 82.7977 25.438C82.6687 25.7749 82.4931 26.0616 82.2709 26.2981C82.0487 26.5275 81.7907 26.7031 81.4968 26.825C81.2101 26.9468 80.9054 27.0077 80.5829 27.0077C80.2603 27.0077 79.9521 26.9468 79.6583 26.825C79.3715 26.7031 79.1171 26.5275 78.8949 26.2981C78.6727 26.0616 78.4935 25.7749 78.3573 25.438C78.2283 25.094 78.1638 24.7069 78.1638 24.2768ZM79.0777 24.2768C79.0777 24.5779 79.1135 24.8503 79.1852 25.094C79.2569 25.3377 79.3572 25.5491 79.4862 25.7283C79.6224 25.9003 79.7837 26.0365 79.9701 26.1369C80.1564 26.23 80.3607 26.2766 80.5829 26.2766C80.8051 26.2766 81.0094 26.23 81.1957 26.1369C81.3821 26.0365 81.5398 25.9003 81.6688 25.7283C81.805 25.5491 81.9089 25.3377 81.9806 25.094C82.0523 24.8503 82.0881 24.5779 82.0881 24.2768C82.0881 23.9758 82.0523 23.7034 81.9806 23.4597C81.9089 23.2088 81.805 22.9938 81.6688 22.8146C81.5398 22.6354 81.3821 22.4992 81.1957 22.4061C81.0094 22.3057 80.8051 22.2555 80.5829 22.2555C80.3607 22.2555 80.1564 22.3057 79.9701 22.4061C79.7837 22.4992 79.6224 22.6354 79.4862 22.8146C79.3572 22.9938 79.2569 23.2088 79.1852 23.4597C79.1135 23.7034 79.0777 23.9758 79.0777 24.2768Z" fill="#636C8B"/>
<path d="M84.4856 21.6535H85.2167L85.292 22.4061H85.3242C85.5536 22.1552 85.8009 21.9473 86.0661 21.7825C86.3385 21.6104 86.6324 21.5244 86.9477 21.5244C87.3491 21.5244 87.6609 21.614 87.8831 21.7932C88.1125 21.9652 88.2809 22.2089 88.3884 22.5243C88.6608 22.2233 88.9332 21.9832 89.2056 21.804C89.4851 21.6176 89.7861 21.5244 90.1087 21.5244C90.6463 21.5244 91.0441 21.6965 91.3021 22.0405C91.5673 22.3846 91.6999 22.8935 91.6999 23.5672V26.8787H90.8183V23.6855C90.8183 23.1909 90.7395 22.8361 90.5818 22.6211C90.4241 22.3989 90.1804 22.2878 89.8507 22.2878C89.4564 22.2878 89.0192 22.5566 88.539 23.0942V26.8787H87.6573V23.6855C87.6573 23.1909 87.5785 22.8361 87.4208 22.6211C87.2631 22.3989 87.0158 22.2878 86.6789 22.2878C86.2847 22.2878 85.8475 22.5566 85.3673 23.0942V26.8787H84.4856V21.6535Z" fill="#636C8B"/>
<path d="M94.3889 27.3195V29.0828H93.5073V21.6535H94.2384L94.3137 22.2555H94.3459C94.5824 22.0548 94.8405 21.8828 95.12 21.7395C95.4067 21.5961 95.7042 21.5244 96.0124 21.5244C96.3493 21.5244 96.6467 21.5889 96.9048 21.718C97.1628 21.8398 97.3779 22.019 97.5499 22.2555C97.7219 22.4849 97.8509 22.7644 97.9369 23.0942C98.0301 23.4167 98.0767 23.7823 98.0767 24.1908C98.0767 24.6352 98.0158 25.033 97.8939 25.3842C97.7721 25.7283 97.6072 26.0222 97.3994 26.2659C97.1915 26.5096 96.9514 26.6959 96.679 26.825C96.4066 26.9468 96.1199 27.0077 95.8189 27.0077C95.5752 27.0077 95.3315 26.954 95.0878 26.8465C94.8512 26.7389 94.6111 26.592 94.3674 26.4056L94.3889 27.3195ZM94.3889 25.7175C94.6255 25.9182 94.8548 26.0616 95.077 26.1476C95.2992 26.2265 95.4963 26.2659 95.6684 26.2659C95.8834 26.2659 96.0805 26.2193 96.2597 26.1261C96.4461 26.0258 96.6037 25.8896 96.7328 25.7175C96.8689 25.5384 96.9729 25.3197 97.0446 25.0617C97.1234 24.8037 97.1628 24.5134 97.1628 24.1908C97.1628 23.9041 97.1377 23.6425 97.0876 23.406C97.0374 23.1694 96.955 22.9687 96.8403 22.8039C96.7328 22.6318 96.5894 22.4992 96.4102 22.4061C96.2382 22.3129 96.0303 22.2663 95.7866 22.2663C95.5644 22.2663 95.3386 22.3272 95.1093 22.4491C94.8871 22.5709 94.647 22.7465 94.3889 22.9759V25.7175Z" fill="#636C8B"/>
<path d="M99.1735 25.524C99.1735 24.9506 99.428 24.5134 99.9369 24.2123C100.453 23.9041 101.27 23.6891 102.388 23.5672C102.388 23.4024 102.37 23.2411 102.334 23.0834C102.306 22.9257 102.248 22.7859 102.162 22.6641C102.084 22.5422 101.976 22.4455 101.84 22.3738C101.704 22.295 101.528 22.2555 101.313 22.2555C101.005 22.2555 100.718 22.3129 100.453 22.4276C100.195 22.5422 99.962 22.6713 99.7541 22.8146L99.3993 22.2018C99.643 22.0441 99.9405 21.8936 100.292 21.7502C100.643 21.5997 101.03 21.5244 101.453 21.5244C102.091 21.5244 102.553 21.7215 102.84 22.1158C103.127 22.5028 103.27 23.0225 103.27 23.6747V26.8787H102.539L102.464 26.2551H102.442C102.191 26.463 101.919 26.6422 101.625 26.7927C101.338 26.9361 101.034 27.0077 100.711 27.0077C100.267 27.0077 99.8975 26.8787 99.6036 26.6207C99.3169 26.3626 99.1735 25.9971 99.1735 25.524ZM100.044 25.4595C100.044 25.7606 100.13 25.9756 100.302 26.1046C100.482 26.2336 100.7 26.2981 100.958 26.2981C101.209 26.2981 101.446 26.2408 101.668 26.1261C101.897 26.0043 102.137 25.8286 102.388 25.5993V24.1478C101.951 24.2052 101.582 24.2732 101.281 24.3521C100.98 24.4309 100.736 24.5241 100.55 24.6316C100.371 24.7392 100.242 24.8646 100.163 25.0079C100.084 25.1441 100.044 25.2946 100.044 25.4595Z" fill="#636C8B"/>
<path d="M105.041 21.6535H105.772L105.847 22.4061H105.879C106.13 22.1552 106.392 21.9473 106.664 21.7825C106.944 21.6104 107.266 21.5244 107.632 21.5244C108.184 21.5244 108.585 21.6965 108.836 22.0405C109.094 22.3846 109.223 22.8935 109.223 23.5672V26.8787H108.342V23.6855C108.342 23.1909 108.263 22.8361 108.105 22.6211C107.947 22.3989 107.697 22.2878 107.352 22.2878C107.08 22.2878 106.84 22.3559 106.632 22.4921C106.424 22.6283 106.188 22.829 105.922 23.0942V26.8787H105.041V21.6535Z" fill="#636C8B"/>
<path d="M110.673 28.3194C110.731 28.3338 110.795 28.3481 110.867 28.3624C110.939 28.3839 111.007 28.3947 111.071 28.3947C111.372 28.3947 111.616 28.2872 111.802 28.0721C111.996 27.8643 112.146 27.5991 112.254 27.2765L112.372 26.8895L110.276 21.6535H111.189L112.254 24.5456C112.333 24.775 112.415 25.0187 112.501 25.2767C112.594 25.5276 112.68 25.7749 112.759 26.0186H112.802C112.881 25.7821 112.956 25.5348 113.028 25.2767C113.1 25.0187 113.171 24.775 113.243 24.5456L114.178 21.6535H115.038L113.071 27.3088C112.978 27.5668 112.874 27.8069 112.759 28.0291C112.644 28.2513 112.508 28.4413 112.351 28.599C112.193 28.7638 112.014 28.8928 111.813 28.986C111.612 29.0792 111.379 29.1258 111.114 29.1258C110.992 29.1258 110.881 29.115 110.781 29.0935C110.681 29.0792 110.587 29.0541 110.501 29.0183L110.673 28.3194Z" fill="#636C8B"/>
<path d="M40.1046 11.4827C40.1046 10.8978 39.9497 10.4505 39.6745 10.1237C39.3821 9.79681 39.0208 9.53878 38.5907 9.34955C38.1607 9.16032 37.6962 9.0055 37.1973 8.90228C36.6813 8.79907 36.2168 8.69585 35.7867 8.55823C35.3567 8.42061 34.9954 8.26579 34.7202 8.05936C34.4277 7.85293 34.2901 7.56049 34.2901 7.14763C34.2901 6.90679 34.3417 6.70036 34.4621 6.52834C34.5654 6.35631 34.7202 6.20149 34.9266 6.08107C35.133 5.96065 35.3567 5.87464 35.6147 5.80583C35.8727 5.75422 36.148 5.71982 36.4404 5.71982C36.9565 5.71982 37.421 5.84024 37.8338 6.04667C38.2467 6.2531 38.5219 6.56274 38.6596 6.9584C38.7284 7.19923 38.8144 7.33685 38.8832 7.40566C38.952 7.47447 39.038 7.49168 39.1584 7.49168C39.2616 7.49168 39.3304 7.47447 39.3993 7.44007C39.4681 7.40566 39.5197 7.35406 39.5541 7.30245C39.5885 7.25084 39.6057 7.19923 39.6229 7.14763C39.6229 7.11322 39.6401 7.07882 39.6401 7.04441C39.6401 7.01001 39.6057 6.88959 39.5541 6.64875C39.4853 6.40792 39.3477 6.16708 39.1412 5.89184C38.9176 5.63381 38.5907 5.39297 38.1607 5.18654C37.7134 4.98011 37.1285 4.85969 36.3888 4.85969C35.6835 4.85969 35.133 4.96291 34.7202 5.16934C34.3073 5.37577 33.9805 5.63381 33.774 5.90905C33.5504 6.18429 33.4128 6.45953 33.344 6.73477C33.2752 7.01001 33.258 7.21644 33.258 7.35406C33.258 7.73251 33.3268 8.05936 33.4988 8.3346C33.6708 8.60984 33.8601 8.83347 34.0837 8.9883C34.2557 9.12592 34.4277 9.22913 34.617 9.29794C34.789 9.38395 35.0126 9.46997 35.2535 9.53878C35.4943 9.60759 35.7695 9.6936 36.0964 9.76241C36.4232 9.84842 36.8189 9.95164 37.2661 10.0721C37.4038 10.1065 37.5586 10.1581 37.765 10.2269C37.9715 10.2957 38.1607 10.3817 38.3499 10.5021C38.5219 10.6225 38.6768 10.7774 38.8144 10.9494C38.952 11.1386 39.0208 11.3622 39.0208 11.6375C39.0208 11.8439 38.9692 12.0503 38.866 12.2568C38.7628 12.4632 38.6251 12.6352 38.4359 12.7901C38.2295 12.9621 37.9887 13.0825 37.679 13.1857C37.3694 13.2889 37.0081 13.3233 36.5953 13.3233C36.4404 13.3233 36.2512 13.3233 36.0276 13.2889C35.8039 13.2717 35.5803 13.2029 35.3567 13.0997C35.1158 12.9965 34.8922 12.8589 34.6858 12.6524C34.4621 12.446 34.2729 12.1708 34.1353 11.8267C34.0665 11.6891 34.0149 11.5515 33.9461 11.4311C33.8773 11.3278 33.7568 11.259 33.602 11.259C33.4644 11.259 33.344 11.3106 33.2408 11.3966C33.1375 11.4827 33.0859 11.6031 33.0859 11.7407C33.0859 11.9987 33.172 12.2912 33.344 12.6008C33.516 12.9105 33.7396 13.1857 34.0149 13.4265C34.1181 13.5298 34.2385 13.6158 34.3761 13.7018C34.5137 13.805 34.6858 13.8738 34.8922 13.9426C35.0986 14.0114 35.3223 14.0802 35.5975 14.1146C35.8555 14.1663 36.1652 14.1835 36.5264 14.1835C37.3178 14.1835 37.937 14.0802 38.4187 13.8738C38.9004 13.6674 39.2616 13.4093 39.5025 13.1169C39.7433 12.8245 39.9153 12.532 39.9841 12.2224C40.053 11.9127 40.1046 11.6719 40.1046 11.4827Z" fill="#026C97"/>
<path d="M43.4117 13.3233V2.33092C43.4117 2.22771 43.3945 2.12449 43.3945 2.02128C43.3945 1.91806 43.3773 1.83205 43.3429 1.74604C43.3085 1.66003 43.2569 1.59121 43.1881 1.53961C43.1193 1.488 43.0161 1.45359 42.8785 1.45359C42.7408 1.45359 42.6548 1.488 42.586 1.53961C42.5172 1.59121 42.4656 1.66003 42.4312 1.74604C42.3968 1.83205 42.3624 1.91806 42.3624 2.02128C42.3624 2.12449 42.3624 2.22771 42.3624 2.33092V13.3233C42.3624 13.4265 42.3624 13.5298 42.3624 13.633C42.3624 13.7362 42.3968 13.8222 42.4312 13.9082C42.4656 13.9942 42.5172 14.063 42.586 14.1146C42.6548 14.1663 42.7581 14.1835 42.8957 14.1835C43.1365 14.1835 43.2913 14.0974 43.3429 13.9082C43.3773 13.719 43.4117 13.5298 43.4117 13.3233Z" fill="#026C97"/>
<path d="M47.2823 13.3233V5.73702C47.2823 5.65101 47.2651 5.54779 47.2651 5.44458C47.2651 5.34136 47.2479 5.25535 47.2135 5.16934C47.1791 5.08333 47.1275 5.01452 47.0587 4.9457C46.9899 4.8941 46.8867 4.85969 46.7662 4.85969C46.6286 4.85969 46.5254 4.8941 46.4566 4.9457C46.3878 4.99731 46.3362 5.06612 46.3018 5.15214C46.2674 5.23815 46.233 5.32416 46.233 5.42738C46.233 5.53059 46.233 5.63381 46.233 5.73702V13.3233C46.233 13.4265 46.233 13.5298 46.233 13.633C46.233 13.7362 46.2674 13.8222 46.3018 13.9082C46.3362 13.9942 46.3878 14.063 46.4566 14.1146C46.5254 14.1663 46.6286 14.1835 46.7662 14.1835C47.0071 14.1835 47.1619 14.0974 47.2135 13.9082C47.2479 13.719 47.2823 13.5298 47.2823 13.3233ZM47.4371 2.46854C47.4371 2.27932 47.3683 2.12449 47.2307 1.98687C47.0931 1.86645 46.9383 1.79765 46.7662 1.79765C46.5598 1.79765 46.405 1.86645 46.2846 1.98687C46.1469 2.12449 46.0953 2.27932 46.0953 2.46854C46.0953 2.65777 46.1469 2.81259 46.2846 2.95021C46.405 3.08783 46.5598 3.13944 46.7662 3.13944C46.9383 3.13944 47.0931 3.08783 47.2307 2.95021C47.3683 2.81259 47.4371 2.65777 47.4371 2.46854Z" fill="#026C97"/>
<path d="M56.8813 2.31372V6.51113C56.7781 6.37351 56.6405 6.21869 56.4857 6.02946C56.3136 5.84024 56.1072 5.65101 55.8492 5.47898C55.5911 5.30696 55.2815 5.16934 54.903 5.04892C54.5246 4.9285 54.0773 4.85969 53.5612 4.85969C52.7871 4.85969 52.1506 5.01452 51.6345 5.30696C51.1185 5.5994 50.7228 5.97786 50.4132 6.42512C50.1035 6.87239 49.8799 7.37126 49.7595 7.90454C49.6219 8.45502 49.5702 8.97109 49.5702 9.45276C49.5702 9.96884 49.6219 10.5193 49.7595 11.0698C49.8971 11.6203 50.1207 12.1364 50.4304 12.6008C50.74 13.0653 51.1357 13.4437 51.6517 13.7362C52.1678 14.0458 52.7871 14.1835 53.544 14.1835C54.0257 14.1835 54.4386 14.1318 54.7998 14.0286C55.1611 13.9254 55.4707 13.7878 55.7459 13.6158C56.0212 13.4437 56.2448 13.2717 56.4168 13.0997C56.5889 12.9277 56.7437 12.7556 56.8813 12.618V13.3233C56.8813 13.4265 56.8813 13.5298 56.8985 13.633C56.8985 13.7362 56.9329 13.8222 56.9673 13.9082C57.0017 13.9942 57.0533 14.063 57.1221 14.1146C57.191 14.1663 57.277 14.1835 57.4146 14.1835C57.6554 14.1835 57.8102 14.0974 57.8619 13.9082C57.8963 13.719 57.9307 13.5298 57.9307 13.3233V2.31372C57.9307 2.22771 57.9135 2.12449 57.9135 2.02128C57.9135 1.91806 57.8963 1.83205 57.8619 1.74604C57.8275 1.66003 57.7758 1.59121 57.707 1.53961C57.6382 1.488 57.535 1.45359 57.4146 1.45359C57.277 1.45359 57.1738 1.488 57.1049 1.53961C57.0361 1.59121 56.9845 1.66003 56.9501 1.74604C56.9157 1.83205 56.8813 1.91806 56.8813 2.02128C56.8813 2.12449 56.8813 2.22771 56.8813 2.31372ZM50.6712 9.50437C50.6712 8.88508 50.74 8.3518 50.912 7.87013C51.0669 7.40566 51.2733 7.01001 51.5485 6.68316C51.8238 6.37351 52.1334 6.13268 52.4947 5.96065C52.8559 5.80583 53.2344 5.71982 53.6472 5.71982C53.9569 5.71982 54.3181 5.78863 54.6966 5.89184C55.0751 6.01226 55.4191 6.21869 55.7459 6.49393C56.0556 6.78637 56.3308 7.18203 56.5545 7.6637C56.7609 8.14537 56.8813 8.76466 56.8813 9.48717C56.8813 9.96884 56.8469 10.3645 56.7781 10.6913C56.7093 11.0354 56.6405 11.3106 56.5373 11.5515C56.434 11.7923 56.3308 11.9815 56.2104 12.1364C56.0728 12.2912 55.9524 12.4288 55.8492 12.532C55.6427 12.7212 55.4535 12.8589 55.2471 12.9621C55.0406 13.0653 54.8342 13.1513 54.645 13.2029C54.4558 13.2545 54.2837 13.2889 54.1117 13.3061C53.9397 13.3233 53.8193 13.3233 53.7161 13.3233C53.3376 13.3233 52.9591 13.2545 52.5979 13.0997C52.2194 12.9449 51.8926 12.704 51.6173 12.3944C51.3249 12.0847 51.1013 11.6891 50.9292 11.2074C50.7572 10.7257 50.6712 10.1581 50.6712 9.50437Z" fill="#026C97"/>
<path d="M61.3279 9.64199H67.1595C67.2972 9.64199 67.4176 9.64199 67.538 9.64199C67.6412 9.64199 67.7444 9.60759 67.8476 9.55598C67.9337 9.52157 68.0025 9.43556 68.0541 9.33235C68.1057 9.22913 68.1401 9.09151 68.1401 8.90228C68.1401 8.88508 68.1229 8.76466 68.1229 8.55823C68.1057 8.3518 68.0541 8.09377 67.9853 7.78412C67.9165 7.49168 67.796 7.16483 67.6412 6.82078C67.4692 6.47673 67.2456 6.16708 66.9703 5.87464C66.6779 5.5994 66.3166 5.35856 65.8866 5.15214C65.4393 4.96291 64.906 4.85969 64.2867 4.85969C63.633 4.85969 63.0481 4.98011 62.5493 5.20374C62.0332 5.42738 61.6203 5.73702 61.2763 6.14988C60.9322 6.56274 60.657 7.04441 60.485 7.61209C60.3129 8.19698 60.2269 8.83347 60.2269 9.52157C60.2269 10.1753 60.2957 10.7946 60.4678 11.3622C60.6226 11.9299 60.8634 12.4288 61.2075 12.8417C61.5515 13.2545 61.9644 13.5814 62.4805 13.8222C62.9965 14.063 63.5986 14.1835 64.2867 14.1835C65.0092 14.1835 65.6113 14.063 66.093 13.805C66.5747 13.5642 66.9531 13.2717 67.2284 12.9621C67.5036 12.6524 67.6928 12.3428 67.796 12.0503C67.8993 11.7579 67.9681 11.5687 67.9681 11.4999C67.9681 11.3966 67.9165 11.2762 67.8304 11.173C67.7272 11.0698 67.6068 11.0182 67.452 11.0182C67.2112 11.0182 67.0391 11.1558 66.9531 11.3966C66.7639 11.8611 66.5403 12.2224 66.2994 12.4804C66.0586 12.7384 65.8005 12.9277 65.5597 13.0481C65.3017 13.1857 65.0608 13.2545 64.8372 13.2889C64.6136 13.3233 64.4415 13.3233 64.3211 13.3233C63.8223 13.3233 63.3922 13.2373 63.0137 13.0481C62.6353 12.8761 62.3256 12.618 62.0848 12.2912C61.844 11.9643 61.6547 11.5687 61.5343 11.1214C61.3967 10.6741 61.3279 10.1925 61.3279 9.64199ZM67.0391 8.78187H61.3451C61.3795 8.52383 61.4483 8.21418 61.5515 7.85293C61.6547 7.50888 61.8268 7.16483 62.0676 6.85518C62.2912 6.54554 62.5837 6.2703 62.9449 6.04667C63.289 5.84024 63.7362 5.71982 64.2523 5.71982C64.8716 5.71982 65.3705 5.85744 65.7317 6.09827C66.093 6.35631 66.3682 6.64875 66.5575 6.9756C66.7467 7.31965 66.8671 7.6465 66.9187 7.99055C66.9703 8.3346 67.0047 8.60984 67.0391 8.78187Z" fill="#026C97"/>
<path d="M71.9578 7.24889C71.9578 6.9633 72.1006 6.73651 72.3862 6.57692C72.6718 6.42573 73.0162 6.34173 73.4026 6.34173C74.1166 6.34173 74.6541 6.60212 75.0069 7.1061C75.3597 7.61848 75.7629 7.87047 76.2081 7.87047C76.5021 7.87047 76.7372 7.78647 76.9052 7.61008C77.0732 7.43369 77.1572 7.21529 77.1572 6.95491C77.1572 6.46772 76.8212 5.99734 76.1661 5.54376C75.5025 5.09018 74.6121 4.86339 73.5034 4.86339C72.2854 4.86339 71.3699 5.13218 70.7651 5.66976C70.1603 6.20733 69.8579 6.82891 69.8579 7.52608C69.8579 8.14766 70.1015 8.68524 70.6055 9.13882C71.1011 9.5924 71.8906 9.93679 72.9826 10.1888C74.0746 10.4408 74.7381 10.6676 74.9817 10.8775C75.2253 11.0875 75.3513 11.3311 75.3513 11.6167C75.3513 11.9359 75.2001 12.1963 74.9145 12.3979C74.6289 12.5995 74.2509 12.7003 73.7974 12.7003C73.3774 12.7003 72.991 12.6247 72.6298 12.4651C72.2602 12.3055 71.9326 11.9779 71.6302 11.4823C71.3615 11.0371 71.0423 10.8104 70.6895 10.8104C70.4207 10.8104 70.2023 10.9027 70.0259 11.0791C69.8411 11.2639 69.7571 11.4739 69.7571 11.7259C69.7571 12.3139 70.0763 12.8767 70.7231 13.3974C71.3699 13.9266 72.3358 14.187 73.6126 14.187C74.8725 14.187 75.8469 13.935 76.5525 13.4142C77.2496 12.9019 77.6024 12.1627 77.6024 11.1883C77.6024 9.96198 76.5609 9.09682 74.4861 8.59284C73.411 8.33245 72.7222 8.11406 72.4198 7.94607C72.109 7.77807 71.9578 7.55128 71.9578 7.24889Z" fill="#026C97"/>
<path d="M87.7727 8.39965C87.7727 7.1817 87.4871 6.29133 86.9244 5.72015C86.3532 5.14898 85.614 4.86339 84.69 4.86339C83.5897 4.86339 82.6573 5.32537 81.893 6.24933V3.53624C81.893 2.96506 81.8594 2.55348 81.809 2.30149C81.7586 2.0495 81.6326 1.84791 81.4394 1.68832C81.2462 1.53712 81.0026 1.45312 80.717 1.45312C80.4566 1.45312 80.2298 1.52872 80.045 1.66312C79.8518 1.79751 79.7258 1.9739 79.6754 2.1923C79.625 2.41069 79.5998 2.78867 79.5998 3.34305V12.4483C79.5998 13.1539 79.7006 13.6242 79.9022 13.851C80.1038 14.0778 80.381 14.187 80.7338 14.187C81.095 14.187 81.3806 14.0778 81.5822 13.8426C81.7838 13.6074 81.893 13.1371 81.893 12.4147V9.76039C81.893 8.87843 81.9602 8.25685 82.0946 7.90407C82.2289 7.55128 82.4557 7.25729 82.7749 7.0137C83.0941 6.77851 83.4805 6.65252 83.9173 6.65252C84.4045 6.65252 84.7908 6.82051 85.068 7.1397C85.3452 7.45889 85.488 8.05526 85.488 8.92043V12.5827C85.488 13.2043 85.5804 13.6242 85.782 13.851C85.9752 14.0778 86.2524 14.187 86.6052 14.187C87.3779 14.187 87.7727 13.6578 87.7727 12.5827V8.39965Z" fill="#026C97"/>
<path d="M95.9523 12.8935C96.4647 13.7586 96.9519 14.187 97.4223 14.187C97.691 14.187 97.9262 14.0946 98.1446 13.9098C98.3546 13.725 98.4638 13.515 98.4638 13.2715C98.4638 13.0531 98.3798 12.7255 98.2202 12.3055C98.0606 11.8855 97.9934 11.3479 98.0186 10.676L98.069 8.52564C98.1026 7.0557 97.8002 6.08134 97.1535 5.59416C96.4983 5.10698 95.4735 4.86339 94.0792 4.86339C92.6932 4.86339 91.6769 5.13218 91.0385 5.66976C90.3917 6.20733 90.0726 6.77011 90.0726 7.35809C90.0726 7.61008 90.165 7.82007 90.3665 7.97966C90.5597 8.13926 90.7781 8.21485 91.0217 8.21485C91.2821 8.21485 91.4837 8.14766 91.6265 8.00486C91.7609 7.87047 91.9205 7.63528 92.1053 7.29929C92.4245 6.71971 93.1048 6.42573 94.1464 6.42573C94.6924 6.42573 95.104 6.55172 95.3727 6.79531C95.6415 7.0389 95.7759 7.50928 95.7843 8.19806C95.1964 8.36605 94.4152 8.55084 93.4576 8.75243C92.5001 8.95403 91.8029 9.12202 91.3829 9.27321C90.9545 9.42441 90.5597 9.6932 90.1986 10.0796C89.8374 10.466 89.661 10.9615 89.661 11.5831C89.661 12.3139 89.9214 12.9271 90.4589 13.431C90.9881 13.935 91.7525 14.187 92.7436 14.187C93.7852 14.187 94.8604 13.7586 95.9523 12.8935ZM95.8011 9.5756C95.8011 10.3316 95.7507 10.9027 95.6499 11.2807C95.5491 11.6671 95.2803 11.9947 94.8436 12.2719C94.4068 12.5491 93.9448 12.6835 93.4408 12.6835C92.962 12.6835 92.5925 12.5575 92.3321 12.3055C92.0717 12.0535 91.9457 11.7679 91.9457 11.4319C91.9457 11.0455 92.1053 10.7516 92.4329 10.55C92.7604 10.3484 93.3148 10.172 94.1044 10.0124C94.894 9.86119 95.4567 9.71 95.8011 9.5756Z" fill="#026C97"/>
<path d="M100.478 12.2887C100.478 12.8515 100.503 13.2379 100.562 13.4394C100.612 13.641 100.747 13.8174 100.948 13.9686C101.15 14.1198 101.377 14.187 101.629 14.187C101.889 14.187 102.124 14.1114 102.326 13.9434C102.528 13.7754 102.645 13.5906 102.696 13.389C102.746 13.1875 102.771 12.7927 102.771 12.2047V10.8775C102.771 9.29841 102.906 8.22325 103.174 7.66888C103.443 7.1145 103.846 6.83731 104.401 6.83731C104.619 6.83731 104.888 6.88771 105.207 6.9885C105.526 7.0893 105.753 7.1313 105.879 7.1313C106.097 7.1313 106.299 7.0473 106.492 6.86251C106.677 6.67772 106.778 6.45093 106.778 6.16534C106.778 5.76215 106.534 5.45137 106.064 5.21617C105.593 4.98098 105.131 4.86339 104.695 4.86339C103.855 4.86339 103.191 5.34217 102.721 6.29133C102.704 5.34217 102.334 4.86339 101.612 4.86339C100.856 4.86339 100.478 5.38417 100.478 6.40893V12.2887Z" fill="#026C97"/>
<path d="M114.109 10.088C114.882 10.088 115.386 9.97038 115.629 9.72679C115.873 9.4832 115.999 9.14722 115.999 8.72723C115.999 7.77807 115.629 6.89611 114.899 6.08134C114.159 5.27497 113.118 4.86339 111.774 4.86339C110.363 4.86339 109.254 5.30017 108.464 6.15694C107.675 7.0137 107.28 8.13926 107.28 9.5252C107.28 10.9027 107.675 12.0283 108.464 12.8935C109.254 13.7586 110.422 14.187 111.959 14.187C113.16 14.187 114.117 13.9098 114.823 13.3386C115.529 12.7675 115.881 12.2299 115.881 11.7091C115.881 11.5243 115.806 11.3647 115.655 11.2303C115.503 11.1043 115.327 11.0371 115.125 11.0371C114.957 11.0371 114.815 11.0707 114.68 11.1379C114.546 11.2051 114.344 11.3815 114.075 11.6587C113.395 12.3307 112.673 12.6667 111.908 12.6667C111.287 12.6667 110.749 12.4567 110.304 12.0199C109.859 11.5831 109.624 10.9447 109.607 10.088H114.109ZM109.607 8.78603C109.783 7.22369 110.48 6.44253 111.698 6.44253C112.27 6.44253 112.757 6.64412 113.151 7.0473C113.538 7.45049 113.748 8.03006 113.781 8.78603H109.607Z" fill="#026C97"/>
<g clip-path="url(#clip0_1302_37083)">
<path fill-rule="evenodd" clip-rule="evenodd" d="M4.30607 -0.000233148H24.5688C25.2227 0.0033781 25.8488 0.264755 26.3113 0.727171C26.7737 1.18959 27.035 1.81572 27.0387 2.46967L27.0387 2.47263L27.0387 15.2562H25.9635V2.47422C25.9611 2.10386 25.8129 1.74933 25.551 1.48742C25.2891 1.22551 24.9346 1.07732 24.5642 1.07492H4.28423C4.09667 1.06974 3.90997 1.10187 3.73509 1.16984C3.56021 1.23781 3.40066 1.34004 3.26584 1.47052C3.13101 1.601 3.02361 1.7571 2.94994 1.92966C2.87644 2.10184 2.83801 2.28693 2.83688 2.47412V15.2562H1.76172V2.46986C1.76342 2.13901 1.83122 1.81184 1.96111 1.50755C2.09101 1.20326 2.28039 0.92799 2.51815 0.697907C2.7559 0.467823 3.03723 0.287562 3.34561 0.16771C3.65155 0.0488089 3.97799 -0.00826192 4.30607 -0.000233148Z" fill="#026C97"/>
<path d="M18.6212 15.0525C19.0675 15.0683 19.5124 14.9959 19.9307 14.8397C20.349 14.6834 20.7323 14.4462 21.0588 14.1416C21.3854 13.837 21.6487 13.4711 21.8337 13.0647C22.0187 12.6583 22.1217 12.2195 22.137 11.7732C22.0896 10.8824 21.6949 10.0457 21.0376 9.4427C20.3803 8.83966 19.5128 8.51835 18.6212 8.54775C17.7208 8.5187 16.8455 8.84735 16.1866 9.46185C15.5278 10.0763 15.1391 10.9267 15.1055 11.827C15.1528 12.7178 15.5475 13.5545 16.2048 14.1575C16.8621 14.7605 17.7297 15.0819 18.6212 15.0525Z" fill="#026C97"/>
<path d="M27.5346 13.5686C24.4722 15.7792 20.6987 16.7752 16.9443 16.364C15.8692 16.364 14.7188 16.2458 14.7188 17.966V18.1596C16.3745 19.2347 17.9442 19.2347 19.1269 17.3854C19.8903 16.2135 20.9224 16.6113 20.3741 18.1381C20.0593 19.0198 19.4739 19.7794 18.7015 20.3085C17.9292 20.8376 17.0093 21.109 16.0734 21.084C15.6399 21.0789 15.2078 21.0321 14.7833 20.9442C14.7833 22.7612 14.7833 24.718 14.7833 25.7072C14.7484 26.1185 14.8027 26.5324 14.9424 26.9209C15.082 27.3093 15.3038 27.663 15.5926 27.958C15.8814 28.2529 16.2304 28.482 16.6158 28.6298C17.0013 28.7776 17.414 28.8406 17.826 28.8144C21.2342 28.8144 23.0297 25.6749 23.0297 22.3634C23.0194 21.1122 22.8238 19.8695 22.4491 18.6756C24.781 17.8498 26.8642 16.4437 28.5023 14.59C29.0291 13.8159 28.4055 12.9558 27.5346 13.5686Z" fill="#026C97"/>
<path fill-rule="evenodd" clip-rule="evenodd" d="M13.9762 11.7301C13.9652 12.1815 13.8645 12.6261 13.6802 13.0383C13.4958 13.4504 13.2314 13.8218 12.9023 14.1309C12.5732 14.44 12.186 14.6806 11.7631 14.8388C11.3402 14.997 10.8901 15.0696 10.439 15.0524C9.99274 15.0682 9.54777 14.9958 9.12951 14.8396C8.71124 14.6833 8.32788 14.4461 8.00136 14.1415C7.67484 13.8369 7.41155 13.471 7.22655 13.0646C7.04155 12.6582 6.93847 12.2194 6.92321 11.7731C6.97056 10.8823 7.36526 10.0456 8.02257 9.4426C8.67989 8.83956 9.54743 8.51825 10.439 8.54765C11.3271 8.5121 12.1941 8.82494 12.8549 9.41946C13.5157 10.014 13.9181 10.8431 13.9762 11.7301ZM11.5141 16.364C7.83714 16.6905 4.16378 15.6998 1.14962 13.5686C0.278741 12.9558 -0.323347 13.8159 0.246486 14.5793C1.87778 16.4358 3.95829 17.8426 6.28887 18.6649C4.25682 25.5889 7.97687 28.8144 10.912 28.8036C11.3252 28.8347 11.7401 28.7757 12.1282 28.6306C12.5163 28.4856 12.8682 28.2579 13.1596 27.9634C13.451 27.6689 13.675 27.3146 13.816 26.9251C13.957 26.5355 14.0117 26.1199 13.9762 25.7072C13.9762 23.6429 13.9762 20.2131 13.9762 20.2131C14.6588 20.4165 15.3621 20.5428 16.0728 20.5894C16.9844 20.6616 17.8956 20.445 18.6772 19.9703C19.4587 19.4955 20.071 18.7868 20.4272 17.9445C21.0185 16.5253 20.0079 16.1168 19.223 17.2027C17.707 19.2885 15.761 18.8584 13.7505 16.9339C13.2021 16.4286 12.9011 16.2888 11.4926 16.364H11.5141Z" fill="#D8711C"/>
</g>
<defs>
<clipPath id="clip0_1302_37083">
<rect width="28.6637" height="28.8142" fill="white"/>
</clipPath>
</defs>
</svg>
