<svg xmlns="http://www.w3.org/2000/svg" width="155" height="155" fill="none" viewBox="0 0 155 155">
    <path fill="#C1C1C1" fill-rule="evenodd" d="M121.433 9.651c.294-.014.59-.021.887-.021.298 0 .594.007.888.021l-.007.144c-.292-.014-.586-.022-.881-.022-.295 0-.589.008-.881.022l-.006-.144zm3.541.172c.591.087 1.171.202 1.742.345l-.035.139c-.566-.141-1.142-.256-1.727-.342l.02-.142zm-7.049.345c.57-.143 1.151-.258 1.741-.345l.021.142c-.586.086-1.162.2-1.727.342l-.035-.14zm10.489.514c.56.2 1.107.428 1.64.68l-.062.13c-.528-.25-1.071-.476-1.626-.674l.048-.136zm-13.827.68c.532-.252 1.079-.48 1.639-.68l.049.136c-.556.198-1.098.424-1.627.674l-.061-.13zm17.031.838c.508.306 1.001.635 1.475.988l-.086.115c-.47-.35-.958-.677-1.463-.98l.074-.123zm-20.071.988c.475-.353.967-.682 1.475-.988l.074.123c-.504.303-.992.63-1.463.98l-.086-.116zm22.917 1.126c.439.398.858.817 1.255 1.255l-.106.097c-.395-.435-.81-.851-1.245-1.245l.096-.107zm-25.543 1.255c.398-.438.817-.857 1.255-1.255l.097.107c-.435.394-.851.81-1.246 1.245l-.106-.097zm27.925 1.371c.352.475.682.967.987 1.475l-.123.074c-.303-.504-.63-.992-.979-1.463l.115-.085zm-30.039 1.475c.305-.508.635-1 .987-1.474l.116.085c-.35.47-.677.959-.98 1.463l-.123-.074zm-1.518 3.204c.201-.56.428-1.107.68-1.64l.13.062c-.25.529-.476 1.071-.675 1.627l-.135-.049zm33.382-1.64c.253.534.48 1.08.68 1.64l-.135.049c-.199-.556-.424-1.098-.675-1.627l.13-.061zm1.195 3.339c.142.57.257 1.15.344 1.74l-.142.022c-.086-.586-.2-1.162-.342-1.727l.14-.035zm-35.436 1.74c.087-.59.202-1.17.345-1.74l.139.035c-.141.565-.256 1.141-.342 1.727l-.142-.021zm35.952 1.768c.014.294.021.59.021.887 0 .298-.007.594-.021.888l-.143-.007c.014-.292.021-.585.021-.88 0-.296-.007-.59-.021-.881l.143-.007zm-36.145.887c0-.297.007-.593.021-.887l.144.006c-.015.292-.022.586-.022.881 0 .296.007.59.022.88l-.144.008c-.014-.294-.021-.59-.021-.888zm35.973 2.654c-.087.59-.202 1.171-.344 1.742l-.14-.035c.142-.566.256-1.142.342-1.727l.142.02zm-35.435 1.742c-.143-.57-.258-1.151-.345-1.742l.142-.02c.086.585.201 1.161.342 1.727l-.139.035zm34.576 1.698c-.2.56-.427 1.107-.68 1.64l-.13-.062c.251-.528.476-1.07.675-1.626l.135.048zm-33.382 1.64c-.252-.533-.479-1.08-.68-1.64l.135-.048c.199.555.425 1.098.675 1.626l-.13.062zm31.864 1.564c-.305.508-.635 1-.987 1.475l-.115-.086c.349-.47.676-.958.979-1.463l.123.074zm-30.039 1.475c-.352-.474-.682-.966-.987-1.475l.123-.074c.303.505.63.993.98 1.463l-.116.086zm27.925 1.371c-.397.439-.816.858-1.255 1.255l-.096-.106c.435-.395.85-.81 1.245-1.245l.106.096zm-25.543 1.255c-.438-.397-.857-.816-1.255-1.255l.106-.096c.395.435.811.85 1.246 1.245l-.097.106zm22.917 1.127c-.474.352-.967.682-1.475.987l-.074-.123c.505-.303.993-.63 1.463-.98l.086.116zm-20.071.987c-.508-.305-1-.635-1.475-.987l.086-.115c.471.35.959.676 1.463.98l-.074.122zm3.204 1.518c-.56-.2-1.107-.427-1.639-.68l.061-.13c.529.25 1.071.476 1.627.675l-.049.135zm13.828-.68c-.533.253-1.08.48-1.64.68l-.048-.135c.555-.199 1.098-.424 1.626-.675l.062.13zm-10.388 1.54c-.59-.088-1.171-.203-1.741-.345l.035-.14c.565.142 1.141.256 1.727.342l-.021.142zm7.05-.345c-.571.142-1.151.257-1.742.344l-.02-.142c.585-.086 1.161-.2 1.727-.342l.035.14zm-4.396.538c-.297 0-.593-.008-.887-.022l.006-.143c.292.014.586.021.881.021.295 0 .589-.007.881-.021l.007.143c-.294.014-.59.022-.888.022z" clip-rule="evenodd"/>
    <path fill="#C0C4CC" d="M40.142 29.322c-3.976 1.406-7.937 3.114-10.721 5.798s-4.177 6.544-2.512 9.773c2.24 4.32 9.3 6.832 9.343 11.51.029 3.345-3.817 5.913-7.692 7.12-3.875 1.219-8.166 1.65-11.683 3.43-5.31 2.683-7.807 7.878-8.826 12.873-1.062 5.18-.632 11.08 3.918 14.825 5.655 4.665 14.998 4.148 23.006 3.143 10.678-1.334 21.313-2.885 31.947-4.449 23.293-3.401 46.601-6.831 69.908-10.247 2.497-.373 5.095-.775 7.133-1.995 4.033-2.44 4.377-7.477 2.024-11.08-2.354-3.602-6.674-6.042-10.98-8.151-4.305-2.11-8.855-4.12-12.084-7.248-3.229-3.129-4.836-7.75-2.382-11.31 2.066-3.013 6.515-4.62 8.453-7.692 2.555-4.047-.388-9.2-5.009-11.783s-62.803-1.923-83.843 5.483z"/>
    <path fill="#D3D3D3" d="M149.288 148.255H5.511c-.846 0-1.55-.703-1.55-1.55v-6.802c0-.847.704-1.55 1.55-1.55h143.777c.847 0 1.55.703 1.55 1.55v6.802c0 .847-.703 1.55-1.55 1.55z"/>
    <path fill="#1772AF" d="M103.262 144.524H40.315c-4.478 0-8.094-4.234-8.094-9.458 0-2.612.904-4.98 2.368-6.688 1.463-1.708 3.487-2.77 5.726-2.77h62.947v18.916z"/>
    <path fill="#F2F2F2" d="M60.479 126.871h58.641c.086 0 .158.072.158.158v16.06c0 .086-.072.158-.158.158H60.479c-4.033 0-7.32-3.273-7.32-7.32v-1.736c0-4.048 3.272-7.32 7.32-7.32z"/>
    <path fill="#0E538C" d="M55.614 130c-1.105 1.291-1.793 3.085-1.793 5.066 0 3.961 2.74 7.162 6.128 7.162h62.832v2.296H59.834c-4.478 0-8.095-4.234-8.095-9.458 0-2.612.905-4.98 2.369-6.688 1.463-1.708 3.487-2.77 5.726-2.77h62.947v2.296H59.949c-1.694 0-3.23.79-4.334 2.096z"/>
    <path fill="#D3D3D3" fill-rule="evenodd" d="M60.494 139.631c0-.079.064-.143.143-.143h56.446c.08 0 .144.064.144.143 0 .08-.064.144-.144.144H60.637c-.079 0-.143-.064-.143-.144zM60.494 136.76c0-.079.064-.143.143-.143h56.446c.08 0 .144.064.144.143 0 .079-.064.144-.144.144H60.637c-.079 0-.143-.065-.143-.144zM60.494 133.89c0-.079.064-.144.143-.144h56.446c.08 0 .144.065.144.144 0 .079-.064.143-.144.143H60.637c-.079 0-.143-.064-.143-.143zM60.494 131.02c0-.08.064-.144.143-.144h56.446c.08 0 .144.064.144.144 0 .079-.064.143-.144.143H60.637c-.079 0-.143-.064-.143-.143z" clip-rule="evenodd"/>
    <path fill="#FFD18D" d="M54.997 125.593h60.048c4.263 0 7.722-3.315 7.722-7.405 0-2.053-.862-3.904-2.268-5.239-1.392-1.334-3.33-2.167-5.468-2.167H54.997v14.811z"/>
    <path fill="#F2F2F2" d="M96.487 111.788H39.855c-.072 0-.13.057-.13.129v12.543c0 .072.058.129.13.129h56.632c3.488 0 6.315-2.827 6.315-6.314v-.173c0-3.487-2.827-6.314-6.315-6.314z"/>
    <path fill="#FFBE55" d="M100.463 114.226c1.062 1.019 1.708 2.411 1.708 3.961 0 3.1-2.612 5.612-5.841 5.612H36.382v1.808H96.43c4.263 0 7.722-3.315 7.722-7.405 0-2.053-.862-3.904-2.268-5.239-1.407-1.334-3.33-2.167-5.468-2.167H36.382v1.808H96.33c1.607-.028 3.071.603 4.133 1.622z"/>
    <path fill="#D3D3D3" fill-rule="evenodd" d="M41.663 123.083c0-.079.064-.144.143-.144H95.67c.079 0 .143.065.143.144 0 .079-.064.143-.143.143H41.806c-.08 0-.143-.064-.143-.143zM41.663 120.212c0-.079.064-.144.143-.144H95.67c.079 0 .143.065.143.144 0 .079-.064.143-.143.143H41.806c-.08 0-.143-.064-.143-.143zM41.663 117.342c0-.08.064-.144.143-.144H95.67c.079 0 .143.064.143.144 0 .079-.064.143-.143.143H41.806c-.08 0-.143-.064-.143-.143zM41.663 114.471c0-.079.064-.143.143-.143H95.67c.079 0 .143.064.143.143 0 .08-.064.144-.143.144H41.806c-.08 0-.143-.064-.143-.144z" clip-rule="evenodd"/>
    <path fill="#43AFFF" d="M103.262 110.782H40.315c-4.478 0-8.094-4.234-8.094-9.458 0-2.612.904-4.98 2.368-6.688 1.463-1.707 3.487-2.77 5.726-2.77h62.947v18.916z"/>
    <path fill="#F2F2F2" d="M60.479 93.13h58.641c.086 0 .158.071.158.157v16.06c0 .086-.072.158-.158.158H60.479c-4.033 0-7.32-3.272-7.32-7.319v-1.751c0-4.033 3.272-7.305 7.32-7.305z"/>
    <path fill="#2A94F4" d="M55.614 96.258c-1.105 1.292-1.793 3.086-1.793 5.066 0 3.961 2.74 7.162 6.128 7.162h62.832v2.296H59.834c-4.478 0-8.095-4.234-8.095-9.458 0-2.612.905-4.98 2.369-6.688 1.463-1.707 3.487-2.77 5.726-2.77h62.947v2.297H59.949c-1.694-.015-3.23.79-4.334 2.095z"/>
    <path fill="#D3D3D3" fill-rule="evenodd" d="M60.494 105.89c0-.08.064-.144.143-.144h56.446c.08 0 .144.064.144.144 0 .079-.064.143-.144.143H60.637c-.079 0-.143-.064-.143-.143zM60.494 103.019c0-.08.064-.144.143-.144h56.446c.08 0 .144.064.144.144 0 .079-.064.143-.144.143H60.637c-.079 0-.143-.064-.143-.143zM60.494 100.148c0-.079.064-.143.143-.143h56.446c.08 0 .144.064.144.143 0 .079-.064.144-.144.144H60.637c-.079 0-.143-.065-.143-.144zM60.494 97.278c0-.08.064-.144.143-.144h56.446c.08 0 .144.065.144.144 0 .08-.064.143-.144.143H60.637c-.079 0-.143-.064-.143-.143z" clip-rule="evenodd"/>
    <path fill="#2A94F4" d="M95.655 128.335l-3.3-2.741-3.445 2.741v-11.108h6.745v11.108z"/>
    <path fill="#B6E7FF" d="M135.639 141.509c3.143 0 4.464-2.511 4.995-5.166.588-3 .158-6.2.158-6.2h-10.291l-.043.344c-.201 1.88-.818 11.022 5.181 11.022z"/>
    <path fill="#85DDFF" d="M130.487 130.143c0 .229 2.31.402 5.152.402s5.152-.187 5.152-.402c0-.23-2.31-.402-5.152-.402s-5.152.187-5.152.402z"/>
    <path fill="#2A94F4" d="M121.704 101.611s5.425 8.252 8.682 13.29c3.258 5.037 4.105 6.085 4.493 7.707.387 1.621.732 7.635.732 7.635h.244s-.087-5.095-.374-6.817c-.287-1.665.015-2.254.259-4.005.229-1.75.545-4.535-1.22-6.472-1.765-1.938-1.292-3.832-1.923-5.124-.617-1.277-5.425-2.827-6.042-4.147-.632-1.292-3.344-2.096-4.851-2.067z"/>
    <path fill="#41AAF7" d="M121.704 101.61s1.707 1.938 2.87 2.598c1.162.66 1.708.072 2.598 1.665.889 1.593.933 2.282 1.736 3.1.818.818 1.78.847 1.866 2.641.072 1.779-.388 3.301-.388 3.301s-8.338-12.874-8.682-13.305z"/>
    <path fill="#2A94F4" d="M135.194 130.257h-.244s-.072-1.65-.732-2.454c-.416-.517-2.225-1.105-3.99-1.808-.976-.388-1.952-.804-2.684-1.278-2.067-1.306-4.033-5.539-4.205-6.286-.057-.258-.086-.416-.086-.531 0-.201.1-.229.273-.43.086-.101.33-.072.645.028.89.273 1.637.876 2.11 1.694.431.746 1.12 1.679 1.966 1.909 1.464.387 1.335.631 1.88 2.109.532 1.479 1.895 1.723 3.588 3.474 1.694 1.736 1.479 3.573 1.479 3.573z"/>
    <path fill="#41AAF7" d="M130.228 125.995c-.976-.388-1.952-.804-2.684-1.278-2.067-1.306-4.033-5.54-4.205-6.286-.057-.258-.086-.416-.086-.531 0 .043.1.718 1.177 1.163 1.119.459 1.335.459 1.478 1.162.144.703.273 1.464.847 1.608.588.143.947-.517 1.406.559.46 1.062.689 1.435 1.105 1.579.431.143.747-.072.847.746.058.517.086.991.115 1.278z"/>
    <path fill="#2A94F4" d="M136.974 130.257h.287s.56-10.218 1.335-11.166c.502-.617 2.153-1.707 4.248-2.54 1.163-.459 2.311-.961 3.172-1.507 2.44-1.55 4.779-6.559 4.98-7.448.072-.316.101-.503.101-.632 0-.244-.13-.273-.331-.517-.1-.114-.401-.071-.76.029-1.048.316-1.938 1.048-2.497 1.995-.517.89-1.321 1.981-2.325 2.253-1.723.46-1.579.747-2.225 2.498-.631 1.75-2.239 2.038-4.248 4.119-1.995 2.066-1.737 12.916-1.737 12.916z"/>
    <path fill="#41AAF7" d="M142.859 116.551c1.162-.459 2.31-.961 3.171-1.507 2.44-1.55 4.78-6.559 4.98-7.448.072-.316.101-.503.101-.632 0 .058-.115.847-1.392 1.378-1.321.545-1.579.545-1.751 1.378-.172.832-.316 1.722-1.005 1.894-.689.172-1.119-.603-1.665.66-.545 1.263-.803 1.694-1.306 1.866-.502.172-.889-.086-.99.89-.086.603-.129 1.162-.143 1.521z"/>
    <path fill="#CCE9FF" d="M135.639 141.509c3.143 0 4.464-2.511 4.995-5.166-3.086-1.163-6.961-3.043-10.176-5.856-.201 1.88-.818 11.022 5.181 11.022z"/>
    <path fill="#B6E7FF" d="M18.355 141.896c2.584 0 3.675-2.067 4.105-4.262.488-2.469.13-5.11.13-5.11h-8.468s-.015.101-.029.273c-.172 1.564-.675 9.099 4.262 9.099z"/>
    <path fill="#85DDFF" d="M14.122 132.525c0 .186 1.894.33 4.233.33 2.34 0 4.234-.144 4.234-.33 0-.187-1.894-.33-4.234-.33-2.339 0-4.233.143-4.233.33z"/>
    <path fill="#2A94F4" d="M4.448 104.381s5.354 8.138 8.569 13.118c3.214 4.965 4.047 5.999 4.434 7.606.388 1.608.732 7.535.732 7.535h.416s.273-5.009-.23-6.645c-.502-1.636-.3-2.296-.071-4.019.23-1.722.531-4.477-1.205-6.386-1.737-1.909-1.278-3.789-1.895-5.052-.617-1.263-5.353-2.784-5.97-4.09-.603-1.306-3.287-2.11-4.78-2.067z"/>
    <path fill="#41AAF7" d="M5.625 104.38s1.68 1.909 2.828 2.555c1.148.646 1.679.072 2.554 1.65.876 1.565.919 2.254 1.723 3.057.803.804 1.765.847 1.837 2.598.072 1.765-.388 3.244-.388 3.244s-8.21-12.687-8.554-13.104z"/>
    <path fill="#2A94F4" d="M19.963 132.526l.301-.087s-.53-2.109-.014-3.358c.33-.818 2.382-2.224 4.348-3.789 1.091-.861 2.153-1.751 2.9-2.626 2.11-2.426 2.985-8.496 2.913-9.515-.029-.359-.058-.56-.1-.704-.087-.258-.216-.258-.517-.445-.144-.086-.445.043-.804.273-1.019.675-1.736 1.722-2.024 2.914-.258 1.105-.775 2.54-1.75 3.143-1.694 1.033-1.45 1.306-1.565 3.372-.115 2.067-1.736 2.885-3.215 5.727-1.45 2.856-.473 5.095-.473 5.095z"/>
    <path fill="#41AAF7" d="M24.613 125.292c1.09-.861 2.152-1.751 2.899-2.627 2.11-2.425 2.985-8.496 2.913-9.515-.029-.359-.057-.56-.1-.703.014.072.143.947-1.048 1.909-1.234 1.004-1.507 1.09-1.42 2.023.085.947.214 1.938-.474 2.34-.675.401-1.393-.288-1.565 1.234-.172 1.521-.316 2.066-.803 2.411-.474.344-.962.186-.776 1.263.144.674.273 1.277.374 1.665z"/>
    <path fill="#CCE9FF" d="M18.356 141.897c2.583 0 3.674-2.066 4.104-4.262-2.54-.962-5.726-2.498-8.381-4.823-.158 1.55-.66 9.085 4.277 9.085z"/>
    <path fill="#072C3D" d="M95.778 80.802h-27.59v6.335h27.59v-6.335z"/>
    <path fill="#2A94F4" d="M97.783 79.779L67.64 78.757l-1.9-26.159h34.333L97.783 79.78z"/>
    <path fill="#FFE3CA" d="M57.054 80.881c4.844.205 22.031 3.25 30.553 4.823 2.964.532 4.864.9 4.864.9s2.126.776 4.721 1.696c2.391.858 5.171 1.84 7.092 2.473.736.245.674 1.287-.061 1.471-1.819.43-5.907.368-8.87-.654-2.432 1.083-3.576 1.144-4.762.266-.388-.286-.838-.532-1.308-.715-.858-.348-1.819-.573-2.738-.695-2.003-.266-3.781-.123-3.781-.123-6.908 1.328-22.685 5.804-32.086.266-9.4-5.539-.143-9.974 6.377-9.708z"/>
    <path fill="#0A3E5B" d="M57.052 80.882c4.843.204 22.03 3.25 30.553 4.823l-1.083 4.762c-2.003-.266-3.781-.123-3.781-.123-6.908 1.329-22.685 5.804-32.086.266-9.4-5.539-.123-9.994 6.397-9.728z"/>
    <path fill="#2A94F4" d="M92.694 89.628c.96.205 2.35-.94 4.496-1.328 2.391.858 5.171 1.84 7.092 2.473.736.245.674 1.287-.061 1.471-1.819.43-5.907.368-8.87-.654-2.432 1.083-3.576 1.145-4.762.266-.388-.286-.838-.532-1.308-.715.43-1.186 2.29-1.37 3.413-1.513zM103.137 52.7c-.266 7.93-3.985 17.473-6.07 20.58-.817 1.226-1.37 1.9-1.37 1.9h-6.886s.02-.04.06-.102c0-.02.021-.04.021-.04.348-.614 1.737-3.128 2.923-6.5 1.41-4.005 2.534-9.237 1.349-13.999H71.52c-2.35 9.4 4.353 20.641 4.353 20.641h-6.887s-7.071-11.445-7.419-22.48c-.367-11.036 11.956-13.08 18.577-13.489h4.415l.715.062c6.744.695 18.209 2.78 17.862 13.427z"/>
    <path fill="#0E538C" d="M86.073 18.367c3.047 0 5.518-2.47 5.518-5.518 0-3.047-2.47-5.518-5.518-5.518-3.048 0-5.518 2.47-5.518 5.518 0 3.047 2.47 5.518 5.518 5.518z"/>
    <path fill="#0E538C" d="M71.562 24.743c0-4.966 4.945-10.565 11.036-10.565 6.09 0 11.035 5.6 11.035 10.565 0 4.966-4.945 9.36-11.035 9.36s-11.036-4.373-11.036-9.36z"/>
    <path fill="#FCD2B1" d="M79.165 35.41l.98 6.05 2.453 5.211 2.044-5.211.817-6.131-6.294.082z"/>
    <path fill="#FFE3CA" d="M89.445 27.665c0 4.17-3.066 9.197-6.846 9.197-3.781 0-6.847-5.028-6.847-9.197s3.066-7.561 6.847-7.561c3.78 0 6.846 3.392 6.846 7.561z"/>
    <path fill="#0E538C" d="M88.013 18.468H77.182v7.153h10.831V18.47z"/>
    <path fill="#3CA8F7" fill-rule="evenodd" d="M94.508 53.436c.214-.07.445.047.515.261.213.65.255 1.624.055 2.977-.202 1.363-.655 3.147-1.468 5.441-.075.213-.309.325-.522.25-.212-.076-.324-.31-.248-.523.801-2.262 1.237-3.993 1.429-5.288.193-1.303.132-2.129-.023-2.602-.07-.215.047-.446.262-.516zM69.4 53.436c.215.07.332.301.261.516-.155.474-.215 1.299-.022 2.602.192 1.295.628 3.026 1.43 5.288.075.213-.037.447-.25.522-.212.076-.446-.036-.521-.249-.813-2.294-1.266-4.078-1.468-5.44-.2-1.354-.158-2.327.055-2.977.07-.215.3-.332.515-.262z" clip-rule="evenodd"/>
    <path fill="#CCE9FF" d="M96.864 83.048h-29.04c-.9 0-1.615-.715-1.615-1.614l-.818-19.66c0-.9.715-1.615 1.615-1.615h30.696c.899 0 1.614.715 1.614 1.615l-.817 19.66c0 .9-.736 1.614-1.635 1.614z"/>
    <path fill="#FFE3CA" d="M110.291 83.048c-3.638 3.188-18.23 12.793-25.485 17.535l-4.148 2.697s-2.085.899-4.599 2.023c-2.33 1.022-5.027 2.228-6.846 3.086-.695.327-1.39-.47-.96-1.103 1.021-1.574 4.025-4.333 6.887-5.62 1.022-2.453 1.798-3.29 3.27-3.474.49-.062.98-.205 1.45-.389.859-.347 1.717-.858 2.453-1.39 1.635-1.185 2.84-2.513 2.84-2.513 4.088-5.723 12.467-19.824 23.094-22.276 10.627-2.453 6.949 7.132 2.044 11.424z"/>
    <path fill="#0A3E5B" d="M110.291 83.048c-3.638 3.188-18.23 12.794-25.485 17.535l-2.493-4.19c1.635-1.185 2.84-2.513 2.84-2.513 4.088-5.722 12.467-19.824 23.094-22.276 10.627-2.453 6.949 7.153 2.044 11.444z"/>
    <path fill="#2A94F4" d="M78.41 101.235c-.838.511-1.063 2.309-2.35 4.067-2.33 1.022-5.028 2.228-6.847 3.086-.695.327-1.39-.47-.96-1.104 1.021-1.573 4.025-4.332 6.887-5.62 1.022-2.452 1.798-3.29 3.27-3.474.49-.061.98-.204 1.45-.388.491 1.144-.715 2.554-1.45 3.433z"/>
    <path fill="#3CA8F7" d="M82.291 74.672c1.693 0 3.066-1.373 3.066-3.066 0-1.693-1.373-3.065-3.066-3.065-1.693 0-3.065 1.372-3.065 3.065 0 1.693 1.372 3.066 3.065 3.066z"/>
</svg>
