<svg xmlns="http://www.w3.org/2000/svg" width="65" height="64" viewBox="0 0 65 64" fill="none">
<circle cx="32.5" cy="32" r="31.5" stroke="#212240"/>
<g clip-path="url(#clip0_378_29421)">
<path d="M44.4993 34.6665C44.1457 34.6665 43.8066 34.807 43.5565 35.057C43.3065 35.3071 43.166 35.6462 43.166 35.9998V41.3332C43.166 41.6868 43.0255 42.0259 42.7755 42.276C42.5254 42.526 42.1863 42.6665 41.8327 42.6665H23.166C22.8124 42.6665 22.4733 42.526 22.2232 42.276C21.9732 42.0259 21.8327 41.6868 21.8327 41.3332V35.9998C21.8327 35.6462 21.6922 35.3071 21.4422 35.057C21.1921 34.807 20.853 34.6665 20.4993 34.6665C20.1457 34.6665 19.8066 34.807 19.5565 35.057C19.3065 35.3071 19.166 35.6462 19.166 35.9998V41.3332C19.166 42.394 19.5874 43.4115 20.3376 44.1616C21.0877 44.9117 22.1051 45.3332 23.166 45.3332H41.8327C42.8935 45.3332 43.911 44.9117 44.6611 44.1616C45.4113 43.4115 45.8327 42.394 45.8327 41.3332V35.9998C45.8327 35.6462 45.6922 35.3071 45.4422 35.057C45.1921 34.807 44.853 34.6665 44.4993 34.6665ZM31.5527 36.9465C31.6795 37.0679 31.829 37.163 31.9927 37.2265C32.1523 37.297 32.3249 37.3335 32.4993 37.3335C32.6738 37.3335 32.8464 37.297 33.006 37.2265C33.1697 37.163 33.3192 37.0679 33.446 36.9465L38.7793 31.6132C39.0304 31.3621 39.1715 31.0216 39.1715 30.6665C39.1715 30.3114 39.0304 29.9709 38.7793 29.7198C38.5283 29.4688 38.1878 29.3277 37.8327 29.3277C37.4776 29.3277 37.1371 29.4688 36.886 29.7198L33.8327 32.7865V19.9998C33.8327 19.6462 33.6922 19.3071 33.4422 19.057C33.1921 18.807 32.853 18.6665 32.4993 18.6665C32.1457 18.6665 31.8066 18.807 31.5565 19.057C31.3065 19.3071 31.166 19.6462 31.166 19.9998V32.7865L28.1127 29.7198C27.9884 29.5955 27.8408 29.4969 27.6783 29.4296C27.5159 29.3623 27.3418 29.3277 27.166 29.3277C26.9902 29.3277 26.8161 29.3623 26.6537 29.4296C26.4913 29.4969 26.3437 29.5955 26.2193 29.7198C26.095 29.8442 25.9964 29.9917 25.9291 30.1542C25.8619 30.3166 25.8272 30.4907 25.8272 30.6665C25.8272 30.8423 25.8619 31.0164 25.9291 31.1788C25.9964 31.3413 26.095 31.4889 26.2193 31.6132L31.5527 36.9465Z" fill="#212240"/>
</g>
<defs>
<clipPath id="clip0_378_29421">
<rect width="32" height="32" fill="white" transform="translate(16.5 16)"/>
</clipPath>
</defs>
</svg>
