<svg xmlns="http://www.w3.org/2000/svg" width="65" height="64" viewBox="0 0 65 64" fill="none">
<circle cx="32.5" cy="32" r="31.5" stroke="#212240"/>
<g clip-path="url(#clip0_378_29414)">
<path d="M44.7261 18.7465C43.7704 18.5819 42.8026 18.4971 41.8328 18.4932C38.5239 18.4905 35.2841 19.4393 32.4995 21.2265C29.7077 19.4627 26.4683 18.5372 23.1661 18.5598C22.1963 18.5638 21.2285 18.6485 20.2728 18.8132C19.9597 18.8671 19.6762 19.0311 19.4733 19.2756C19.2705 19.52 19.1615 19.8289 19.1661 20.1465V36.1465C19.1633 36.3424 19.2036 36.5365 19.2843 36.7151C19.365 36.8936 19.4841 37.0522 19.633 37.1795C19.782 37.3068 19.9571 37.3997 20.1461 37.4516C20.335 37.5035 20.5331 37.5132 20.7261 37.4798C22.6368 37.149 24.5944 37.2039 26.4836 37.6413C28.3727 38.0786 30.1552 38.8896 31.7261 40.0265L31.8861 40.1198H32.0328C32.1807 40.1814 32.3393 40.2132 32.4995 40.2132C32.6597 40.2132 32.8183 40.1814 32.9661 40.1198H33.1128L33.2728 40.0265C34.8327 38.8642 36.6101 38.027 38.4997 37.5643C40.3892 37.1017 42.3523 37.0231 44.2728 37.3332C44.4659 37.3665 44.6639 37.3569 44.8529 37.305C45.0418 37.253 45.217 37.1601 45.3659 37.0328C45.5148 36.9055 45.6339 36.747 45.7146 36.5684C45.7953 36.3899 45.8357 36.1957 45.8328 35.9998V19.9998C45.8189 19.696 45.7016 19.4061 45.5003 19.1782C45.299 18.9502 45.0259 18.7979 44.7261 18.7465ZM31.1661 36.4665C28.6993 35.1688 25.9535 34.4915 23.1661 34.4932C22.7261 34.4932 22.2861 34.4932 21.8328 34.4932V21.1598C22.2769 21.1342 22.7221 21.1342 23.1661 21.1598C26.0106 21.1567 28.7931 21.9914 31.1661 23.5598V36.4665ZM43.1661 34.5465C42.7128 34.5465 42.2728 34.5465 41.8328 34.5465C39.0454 34.5448 36.2996 35.2221 33.8328 36.5198V23.5598C36.2058 21.9914 38.9883 21.1567 41.8328 21.1598C42.2769 21.1342 42.7221 21.1342 43.1661 21.1598V34.5465ZM44.7261 40.0798C43.7704 39.9152 42.8026 39.8305 41.8328 39.8265C38.5239 39.8238 35.2841 40.7726 32.4995 42.5598C29.7148 40.7726 26.475 39.8238 23.1661 39.8265C22.1963 39.8305 21.2285 39.9152 20.2728 40.0798C20.0992 40.1074 19.9328 40.169 19.7831 40.261C19.6335 40.3531 19.5035 40.4739 19.4006 40.6164C19.2978 40.7589 19.2241 40.9203 19.1839 41.0914C19.1436 41.2624 19.1376 41.4398 19.1661 41.6132C19.2339 41.9594 19.4361 42.2647 19.7285 42.4621C20.0209 42.6596 20.3796 42.733 20.7261 42.6665C22.6368 42.3357 24.5944 42.3906 26.4836 42.8279C28.3727 43.2653 30.1552 44.0763 31.7261 45.2132C31.9519 45.3739 32.2223 45.4603 32.4995 45.4603C32.7767 45.4603 33.047 45.3739 33.2728 45.2132C34.8437 44.0763 36.6262 43.2653 38.5154 42.8279C40.4045 42.3906 42.3621 42.3357 44.2728 42.6665C44.6193 42.733 44.978 42.6596 45.2704 42.4621C45.5628 42.2647 45.765 41.9594 45.8328 41.6132C45.8613 41.4398 45.8553 41.2624 45.8151 41.0914C45.7748 40.9203 45.7012 40.7589 45.5983 40.6164C45.4955 40.4739 45.3655 40.3531 45.2158 40.261C45.0661 40.169 44.8997 40.1074 44.7261 40.0798Z" fill="#212240"/>
</g>
<defs>
<clipPath id="clip0_378_29414">
<rect width="32" height="32" fill="white" transform="translate(16.5 16)"/>
</clipPath>
</defs>
</svg>
